<svg width="32" height="32" viewBox="0 0 256 256"><path fill="currentColor" d="M234.6 47.9C230.3 42.5 222.3 36 208 36c-17.7 0-40.2 11.8-60 31.5c-2.9 2.8-5.5 5.6-8 8.5V56a12 12 0 0 0-24 0v20c-2.5-2.9-5.1-5.7-8-8.5C88.2 47.8 65.7 36 48 36c-14.3 0-22.3 6.5-26.6 11.9c-13.2 16.9-8.3 46-1 75c5.5 22.2 17 32.7 27.8 37.5A47.5 47.5 0 0 0 44 180a48 48 0 0 0 84 31.7a48 48 0 0 0 79.8-51.3c10.8-4.8 22.3-15.3 27.8-37.5c7.3-29 12.2-58.1-1-75ZM92 204a24 24 0 0 1-2.7-47.9a11.9 11.9 0 0 0 10.6-13.2a12 12 0 0 0-13.2-10.6a46.9 46.9 0 0 0-21.8 8.1c-7.8-.7-16.8-5.7-21.3-23.3c-7.3-29.5-8.4-47.8-3.2-54.4c.6-.8 2-2.7 7.6-2.7c11 0 28.4 9.9 43.1 24.5S116 116.6 116 128v52a24.1 24.1 0 0 1-24 24Zm120.4-86.9c-4.5 17.6-13.5 22.6-21.3 23.3a46.9 46.9 0 0 0-21.8-8.1a12 12 0 1 0-2.6 23.8A24 24 0 1 1 140 180v-52c0-11.4 9.8-28.5 24.9-43.5S197 60 208 60c5.6 0 7 1.9 7.6 2.7c5.2 6.6 4.1 24.9-3.2 54.4Z"/></svg>